<svg xmlns="http://www.w3.org/2000/svg" viewBox="0 0 1600 1200" width="1600" height="1200" preserveAspectRatio="xMidYMid slice" role="img" aria-label="Wad &amp; Weids sfeerbeeld">
  <defs>
    <linearGradient id="sky" x1="0" y1="0" x2="0" y2="1"><stop offset="0" stop-color="#D5D8D0"/><stop offset="0.5" stop-color="#E7E5DA"/><stop offset="1" stop-color="#F4F0E5"/></linearGradient>
    <radialGradient id="vig" cx=".5" cy=".45" r=".78">
      <stop offset=".55" stop-color="#0E1714" stop-opacity="0"/><stop offset="1" stop-color="#0E1714" stop-opacity="0.3"/>
    </radialGradient>
    <filter id="grain"><feTurbulence type="fractalNoise" baseFrequency=".82" numOctaves="3" seed="45"/><feColorMatrix type="saturate" values="0"/></filter>
    
  </defs>
  <rect width="1600" height="1200" fill="url(#sky)"/>
  <radialGradient id="sun"><stop offset="0" stop-color="#FBF3E2" stop-opacity="0.7"/><stop offset=".35" stop-color="#FBF3E2" stop-opacity=".38"/><stop offset="1" stop-color="#FBF3E2" stop-opacity="0"/></radialGradient>
       <circle cx="689.7452058792114" cy="312" r="640" fill="url(#sun)"/>
       
  <filter id="b0" x="-10%" y="-10%" width="120%" height="130%"><feGaussianBlur stdDeviation="3"/></filter><path d="M0,587 Q0,587 7,587 Q13,587 20,587 Q27,587 33,587 Q40,587 47,587 Q53,587 60,587 Q67,587 73,587 Q80,587 87,587 Q93,587 100,586 Q107,586 113,586 Q120,586 127,585 Q133,585 140,585 Q147,584 153,584 Q160,584 167,583 Q173,583 180,582 Q187,582 193,581 Q200,581 207,580 Q213,580 220,579 Q227,579 233,578 Q240,577 247,577 Q253,576 260,576 Q267,575 273,575 Q280,574 287,573 Q293,573 300,572 Q307,572 313,571 Q320,571 327,571 Q333,570 340,570 Q347,569 353,569 Q360,569 367,568 Q373,568 380,568 Q387,567 393,567 Q400,567 407,567 Q413,567 420,566 Q427,566 433,566 Q440,566 447,566 Q453,566 460,566 Q467,566 473,566 Q480,566 487,566 Q493,566 500,566 Q507,565 513,565 Q520,565 527,565 Q533,565 540,565 Q547,565 553,565 Q560,565 567,565 Q573,565 580,565 Q587,565 593,565 Q600,565 607,565 Q613,565 620,564 Q627,564 633,564 Q640,564 647,564 Q653,564 660,564 Q667,564 673,564 Q680,564 687,564 Q693,564 700,564 Q707,564 713,564 Q720,564 727,564 Q733,564 740,564 Q747,564 753,564 Q760,564 767,564 Q773,565 780,565 Q787,565 793,565 Q800,565 807,565 Q813,566 820,566 Q827,566 833,566 Q840,567 847,567 Q853,567 860,567 Q867,568 873,568 Q880,568 887,569 Q893,569 900,569 Q907,569 913,569 Q920,570 927,570 Q933,570 940,570 Q947,570 953,570 Q960,570 967,571 Q973,571 980,571 Q987,571 993,571 Q1000,571 1007,570 Q1013,570 1020,570 Q1027,570 1033,570 Q1040,570 1047,570 Q1053,570 1060,569 Q1067,569 1073,569 Q1080,569 1087,569 Q1093,568 1100,568 Q1107,568 1113,568 Q1120,568 1127,567 Q1133,567 1140,567 Q1147,567 1153,567 Q1160,567 1167,567 Q1173,567 1180,566 Q1187,566 1193,566 Q1200,566 1207,566 Q1213,566 1220,567 Q1227,567 1233,567 Q1240,567 1247,567 Q1253,567 1260,567 Q1267,568 1273,568 Q1280,568 1287,568 Q1293,569 1300,569 Q1307,569 1313,570 Q1320,570 1327,570 Q1333,571 1340,571 Q1347,571 1353,572 Q1360,572 1367,573 Q1373,573 1380,573 Q1387,574 1393,574 Q1400,574 1407,575 Q1413,575 1420,575 Q1427,576 1433,576 Q1440,576 1447,577 Q1453,577 1460,577 Q1467,578 1473,578 Q1480,578 1487,578 Q1493,579 1500,579 Q1507,579 1513,579 Q1520,580 1527,580 Q1533,580 1540,580 Q1547,581 1553,581 Q1560,581 1567,581 Q1573,582 1580,582 Q1587,582 1593,582 L1600,1200 L0,1200 Z" fill="#BAC0B6" opacity="0.85" filter="url(#b0)"/><path d="M0,675 Q0,675 7,674 Q13,674 20,674 Q27,673 33,673 Q40,672 47,671 Q53,670 60,669 Q67,668 73,667 Q80,666 87,665 Q93,664 100,663 Q107,662 113,660 Q120,659 127,658 Q133,657 140,656 Q147,654 153,653 Q160,652 167,652 Q173,651 180,650 Q187,649 193,649 Q200,648 207,648 Q213,648 220,648 Q227,648 233,648 Q240,648 247,648 Q253,648 260,649 Q267,649 273,650 Q280,650 287,650 Q293,651 300,651 Q307,652 313,652 Q320,653 327,653 Q333,654 340,654 Q347,654 353,655 Q360,655 367,655 Q373,655 380,656 Q387,656 393,656 Q400,657 407,657 Q413,657 420,657 Q427,658 433,658 Q440,659 447,659 Q453,660 460,660 Q467,661 473,662 Q480,662 487,663 Q493,664 500,664 Q507,665 513,666 Q520,667 527,667 Q533,668 540,669 Q547,669 553,670 Q560,671 567,671 Q573,672 580,672 Q587,672 593,672 Q600,673 607,673 Q613,673 620,672 Q627,672 633,672 Q640,672 647,672 Q653,671 660,671 Q667,671 673,670 Q680,670 687,670 Q693,669 700,669 Q707,669 713,669 Q720,669 727,669 Q733,669 740,670 Q747,670 753,670 Q760,671 767,671 Q773,672 780,673 Q787,674 793,674 Q800,675 807,676 Q813,677 820,678 Q827,679 833,680 Q840,681 847,682 Q853,683 860,684 Q867,685 873,685 Q880,686 887,687 Q893,687 900,688 Q907,688 913,689 Q920,689 927,690 Q933,690 940,690 Q947,690 953,691 Q960,691 967,691 Q973,691 980,692 Q987,692 993,692 Q1000,692 1007,693 Q1013,693 1020,693 Q1027,694 1033,694 Q1040,694 1047,694 Q1053,695 1060,695 Q1067,695 1073,695 Q1080,696 1087,696 Q1093,696 1100,696 Q1107,696 1113,696 Q1120,695 1127,695 Q1133,695 1140,694 Q1147,693 1153,693 Q1160,692 1167,691 Q1173,690 1180,689 Q1187,688 1193,687 Q1200,686 1207,685 Q1213,684 1220,682 Q1227,681 1233,680 Q1240,679 1247,678 Q1253,677 1260,676 Q1267,675 1273,674 Q1280,673 1287,672 Q1293,672 1300,671 Q1307,671 1313,671 Q1320,670 1327,670 Q1333,670 1340,670 Q1347,670 1353,670 Q1360,670 1367,670 Q1373,670 1380,670 Q1387,670 1393,670 Q1400,670 1407,670 Q1413,670 1420,670 Q1427,670 1433,670 Q1440,670 1447,670 Q1453,670 1460,669 Q1467,669 1473,669 Q1480,668 1487,668 Q1493,667 1500,667 Q1507,666 1513,666 Q1520,666 1527,665 Q1533,665 1540,665 Q1547,664 1553,664 Q1560,664 1567,664 Q1573,663 1580,663 Q1587,663 1593,663 L1600,1200 L0,1200 Z" fill="#A2AA9E" opacity="0.9"/><path d="M0,764 Q0,764 7,764 Q13,764 20,764 Q27,764 33,764 Q40,764 47,764 Q53,764 60,764 Q67,764 73,764 Q80,763 87,763 Q93,763 100,763 Q107,763 113,763 Q120,763 127,763 Q133,763 140,763 Q147,763 153,763 Q160,763 167,763 Q173,763 180,763 Q187,763 193,763 Q200,763 207,763 Q213,763 220,763 Q227,763 233,763 Q240,763 247,763 Q253,763 260,763 Q267,763 273,763 Q280,763 287,763 Q293,763 300,763 Q307,763 313,762 Q320,762 327,762 Q333,762 340,762 Q347,762 353,762 Q360,762 367,761 Q373,761 380,761 Q387,761 393,761 Q400,761 407,760 Q413,760 420,760 Q427,760 433,760 Q440,760 447,759 Q453,759 460,759 Q467,759 473,759 Q480,759 487,758 Q493,758 500,758 Q507,758 513,758 Q520,758 527,758 Q533,758 540,757 Q547,757 553,757 Q560,757 567,757 Q573,757 580,757 Q587,757 593,757 Q600,757 607,757 Q613,758 620,758 Q627,758 633,758 Q640,758 647,758 Q653,758 660,758 Q667,759 673,759 Q680,759 687,759 Q693,759 700,760 Q707,760 713,760 Q720,760 727,761 Q733,761 740,761 Q747,761 753,762 Q760,762 767,762 Q773,762 780,763 Q787,763 793,763 Q800,764 807,764 Q813,764 820,764 Q827,764 833,765 Q840,765 847,765 Q853,765 860,766 Q867,766 873,766 Q880,766 887,766 Q893,767 900,767 Q907,767 913,767 Q920,767 927,767 Q933,767 940,768 Q947,768 953,768 Q960,768 967,768 Q973,768 980,768 Q987,769 993,769 Q1000,769 1007,769 Q1013,769 1020,769 Q1027,769 1033,769 Q1040,769 1047,770 Q1053,770 1060,770 Q1067,770 1073,770 Q1080,770 1087,770 Q1093,771 1100,771 Q1107,771 1113,771 Q1120,771 1127,771 Q1133,772 1140,772 Q1147,772 1153,772 Q1160,772 1167,772 Q1173,773 1180,773 Q1187,773 1193,773 Q1200,773 1207,773 Q1213,773 1220,774 Q1227,774 1233,774 Q1240,774 1247,774 Q1253,774 1260,774 Q1267,774 1273,775 Q1280,775 1287,775 Q1293,775 1300,775 Q1307,775 1313,775 Q1320,775 1327,775 Q1333,775 1340,775 Q1347,775 1353,775 Q1360,775 1367,775 Q1373,775 1380,775 Q1387,775 1393,774 Q1400,774 1407,774 Q1413,774 1420,774 Q1427,774 1433,774 Q1440,774 1447,774 Q1453,774 1460,773 Q1467,773 1473,773 Q1480,773 1487,773 Q1493,773 1500,773 Q1507,773 1513,773 Q1520,772 1527,772 Q1533,772 1540,772 Q1547,772 1553,772 Q1560,772 1567,772 Q1573,772 1580,772 Q1587,772 1593,772 L1600,1200 L0,1200 Z" fill="#CBCDBF"/><path d="M0,898 Q0,898 7,898 Q13,898 20,899 Q27,899 33,900 Q40,901 47,901 Q53,902 60,903 Q67,904 73,905 Q80,906 87,907 Q93,907 100,908 Q107,908 113,909 Q120,909 127,909 Q133,909 140,909 Q147,909 153,909 Q160,908 167,908 Q173,907 180,907 Q187,907 193,906 Q200,906 207,905 Q213,905 220,905 Q227,904 233,904 Q240,904 247,903 Q253,903 260,903 Q267,902 273,902 Q280,901 287,900 Q293,900 300,899 Q307,898 313,896 Q320,895 327,894 Q333,892 340,890 Q347,889 353,887 Q360,885 367,883 Q373,881 380,880 Q387,878 393,876 Q400,875 407,873 Q413,872 420,871 Q427,870 433,869 Q440,869 447,868 Q453,868 460,868 Q467,868 473,868 Q480,868 487,869 Q493,869 500,870 Q507,870 513,871 Q520,871 527,872 Q533,872 540,872 Q547,873 553,873 Q560,873 567,873 Q573,873 580,873 Q587,873 593,872 Q600,872 607,872 Q613,872 620,872 Q627,872 633,872 Q640,872 647,872 Q653,872 660,873 Q667,873 673,873 Q680,874 687,874 Q693,875 700,875 Q707,875 713,876 Q720,876 727,876 Q733,876 740,876 Q747,876 753,876 Q760,876 767,876 Q773,875 780,875 Q787,874 793,874 Q800,873 807,873 Q813,872 820,872 Q827,872 833,872 Q840,872 847,872 Q853,872 860,873 Q867,873 873,874 Q880,875 887,877 Q893,878 900,880 Q907,881 913,883 Q920,885 927,886 Q933,888 940,890 Q947,891 953,893 Q960,895 967,896 Q973,897 980,899 Q987,900 993,901 Q1000,902 1007,902 Q1013,903 1020,904 Q1027,904 1033,905 Q1040,905 1047,906 Q1053,906 1060,907 Q1067,907 1073,907 Q1080,908 1087,908 Q1093,909 1100,909 Q1107,910 1113,910 Q1120,911 1127,911 Q1133,912 1140,912 Q1147,912 1153,912 Q1160,912 1167,912 Q1173,912 1180,911 Q1187,911 1193,910 Q1200,909 1207,908 Q1213,907 1220,906 Q1227,905 1233,904 Q1240,902 1247,901 Q1253,900 1260,899 Q1267,898 1273,898 Q1280,897 1287,896 Q1293,896 1300,896 Q1307,896 1313,896 Q1320,896 1327,896 Q1333,897 1340,897 Q1347,898 1353,898 Q1360,899 1367,899 Q1373,900 1380,900 Q1387,900 1393,900 Q1400,900 1407,900 Q1413,900 1420,900 Q1427,900 1433,899 Q1440,898 1447,898 Q1453,897 1460,896 Q1467,895 1473,894 Q1480,893 1487,892 Q1493,891 1500,891 Q1507,890 1513,889 Q1520,888 1527,888 Q1533,887 1540,886 Q1547,886 1553,885 Q1560,884 1567,884 Q1573,883 1580,882 Q1587,882 1593,881 L1600,1200 L0,1200 Z" fill="#B4B49E"/><path d="M0,1024 Q0,1024 7,1024 Q13,1024 20,1023 Q27,1023 33,1023 Q40,1022 47,1022 Q53,1022 60,1021 Q67,1021 73,1020 Q80,1020 87,1020 Q93,1019 100,1019 Q107,1019 113,1019 Q120,1019 127,1019 Q133,1019 140,1020 Q147,1020 153,1020 Q160,1021 167,1021 Q173,1022 180,1023 Q187,1024 193,1025 Q200,1026 207,1027 Q213,1028 220,1029 Q227,1030 233,1031 Q240,1033 247,1034 Q253,1035 260,1037 Q267,1038 273,1039 Q280,1040 287,1042 Q293,1043 300,1044 Q307,1045 313,1046 Q320,1047 327,1048 Q333,1049 340,1050 Q347,1051 353,1052 Q360,1052 367,1053 Q373,1054 380,1054 Q387,1055 393,1055 Q400,1056 407,1056 Q413,1056 420,1057 Q427,1057 433,1058 Q440,1058 447,1058 Q453,1059 460,1059 Q467,1060 473,1060 Q480,1060 487,1061 Q493,1061 500,1062 Q507,1062 513,1063 Q520,1063 527,1064 Q533,1064 540,1064 Q547,1065 553,1065 Q560,1066 567,1066 Q573,1066 580,1066 Q587,1066 593,1066 Q600,1066 607,1066 Q613,1066 620,1066 Q627,1066 633,1065 Q640,1065 647,1064 Q653,1064 660,1063 Q667,1062 673,1061 Q680,1060 687,1059 Q693,1058 700,1057 Q707,1056 713,1055 Q720,1054 727,1052 Q733,1051 740,1050 Q747,1049 753,1047 Q760,1046 767,1045 Q773,1044 780,1043 Q787,1042 793,1041 Q800,1040 807,1039 Q813,1039 820,1038 Q827,1038 833,1037 Q840,1037 847,1037 Q853,1036 860,1036 Q867,1036 873,1036 Q880,1036 887,1036 Q893,1036 900,1036 Q907,1037 913,1037 Q920,1037 927,1037 Q933,1038 940,1038 Q947,1038 953,1038 Q960,1038 967,1038 Q973,1038 980,1038 Q987,1038 993,1038 Q1000,1038 1007,1038 Q1013,1038 1020,1037 Q1027,1037 1033,1037 Q1040,1036 1047,1036 Q1053,1035 1060,1035 Q1067,1034 1073,1034 Q1080,1033 1087,1032 Q1093,1032 1100,1031 Q1107,1031 1113,1030 Q1120,1029 1127,1029 Q1133,1028 1140,1028 Q1147,1027 1153,1027 Q1160,1026 1167,1026 Q1173,1026 1180,1025 Q1187,1025 1193,1025 Q1200,1024 1207,1024 Q1213,1024 1220,1024 Q1227,1023 1233,1023 Q1240,1023 1247,1022 Q1253,1022 1260,1022 Q1267,1021 1273,1021 Q1280,1020 1287,1020 Q1293,1019 1300,1018 Q1307,1017 1313,1017 Q1320,1016 1327,1015 Q1333,1014 1340,1013 Q1347,1012 1353,1011 Q1360,1010 1367,1009 Q1373,1008 1380,1006 Q1387,1005 1393,1004 Q1400,1003 1407,1002 Q1413,1001 1420,1000 Q1427,999 1433,998 Q1440,997 1447,996 Q1453,996 1460,995 Q1467,995 1473,994 Q1480,994 1487,994 Q1493,994 1500,994 Q1507,994 1513,994 Q1520,994 1527,995 Q1533,995 1540,996 Q1547,997 1553,997 Q1560,998 1567,999 Q1573,1000 1580,1001 Q1587,1002 1593,1003 L1600,1200 L0,1200 Z" fill="#7E876F"/><path d="M0,1126 Q0,1126 7,1126 Q13,1127 20,1128 Q27,1128 33,1129 Q40,1129 47,1130 Q53,1130 60,1131 Q67,1131 73,1131 Q80,1132 87,1132 Q93,1133 100,1133 Q107,1134 113,1135 Q120,1136 127,1137 Q133,1138 140,1140 Q147,1142 153,1144 Q160,1146 167,1149 Q173,1151 180,1154 Q187,1156 193,1158 Q200,1160 207,1162 Q213,1164 220,1165 Q227,1167 233,1167 Q240,1168 247,1168 Q253,1168 260,1168 Q267,1168 273,1167 Q280,1166 287,1166 Q293,1165 300,1164 Q307,1163 313,1162 Q320,1162 327,1161 Q333,1161 340,1160 Q347,1160 353,1159 Q360,1159 367,1159 Q373,1158 380,1158 Q387,1157 393,1157 Q400,1156 407,1155 Q413,1154 420,1153 Q427,1152 433,1151 Q440,1150 447,1149 Q453,1148 460,1147 Q467,1146 473,1145 Q480,1145 487,1144 Q493,1144 500,1144 Q507,1145 513,1145 Q520,1145 527,1146 Q533,1147 540,1147 Q547,1148 553,1148 Q560,1148 567,1148 Q573,1148 580,1148 Q587,1147 593,1146 Q600,1145 607,1143 Q613,1142 620,1140 Q627,1138 633,1136 Q640,1134 647,1132 Q653,1130 660,1128 Q667,1126 673,1125 Q680,1123 687,1122 Q693,1121 700,1120 Q707,1119 713,1118 Q720,1118 727,1117 Q733,1117 740,1116 Q747,1116 753,1115 Q760,1115 767,1114 Q773,1114 780,1113 Q787,1112 793,1112 Q800,1112 807,1111 Q813,1111 820,1111 Q827,1111 833,1112 Q840,1113 847,1114 Q853,1115 860,1117 Q867,1118 873,1120 Q880,1122 887,1124 Q893,1126 900,1128 Q907,1130 913,1132 Q920,1134 927,1135 Q933,1136 940,1137 Q947,1138 953,1138 Q960,1139 967,1139 Q973,1139 980,1139 Q987,1138 993,1138 Q1000,1138 1007,1137 Q1013,1137 1020,1137 Q1027,1137 1033,1137 Q1040,1138 1047,1138 Q1053,1139 1060,1140 Q1067,1141 1073,1142 Q1080,1142 1087,1143 Q1093,1144 1100,1145 Q1107,1146 1113,1147 Q1120,1147 1127,1148 Q1133,1148 1140,1149 Q1147,1149 1153,1150 Q1160,1150 1167,1151 Q1173,1151 1180,1152 Q1187,1153 1193,1154 Q1200,1155 1207,1156 Q1213,1158 1220,1159 Q1227,1161 1233,1163 Q1240,1164 1247,1166 Q1253,1168 1260,1169 Q1267,1170 1273,1171 Q1280,1172 1287,1172 Q1293,1172 1300,1172 Q1307,1171 1313,1170 Q1320,1169 1327,1168 Q1333,1166 1340,1165 Q1347,1163 1353,1161 Q1360,1159 1367,1157 Q1373,1156 1380,1154 Q1387,1153 1393,1151 Q1400,1150 1407,1149 Q1413,1148 1420,1147 Q1427,1146 1433,1146 Q1440,1145 1447,1144 Q1453,1143 1460,1142 Q1467,1141 1473,1140 Q1480,1139 1487,1138 Q1493,1137 1500,1136 Q1507,1134 1513,1133 Q1520,1132 1527,1131 Q1533,1130 1540,1130 Q1547,1129 1553,1129 Q1560,1129 1567,1129 Q1573,1130 1580,1130 Q1587,1131 1593,1131 L1600,1200 L0,1200 Z" fill="#4E5A48"/>
  <rect x="-40" y="660" width="1680" height="192" fill="url(#mist0)" opacity="0.55"/><linearGradient id="mist0" x1="0" y1="0" x2="0" y2="1"><stop offset="0" stop-color="#F2EEE4" stop-opacity="0"/><stop offset=".45" stop-color="#F2EEE4" stop-opacity="1"/><stop offset="1" stop-color="#F2EEE4" stop-opacity="0"/></linearGradient>
  <rect x="129.2" y="731.6" width="5.2" height="60.6" fill="#4E5A48" rx="2"/><rect x="129.2" y="792.1" width="6.8" height="30.3" fill="#4E5A48" opacity=".18" rx="2"/><rect x="288.4" y="711.3" width="5.6" height="80.8" fill="#4E5A48" rx="2"/><rect x="288.4" y="792.1" width="7.1" height="40.4" fill="#4E5A48" opacity=".18" rx="2"/><rect x="479.9" y="688.1" width="6.4" height="104.1" fill="#4E5A48" rx="2"/><rect x="479.9" y="792.1" width="5.9" height="52.0" fill="#4E5A48" opacity=".18" rx="2"/><rect x="656.0" y="715.5" width="7.9" height="76.7" fill="#4E5A48" rx="2"/><rect x="656.0" y="792.1" width="6.4" height="38.3" fill="#4E5A48" opacity=".18" rx="2"/><rect x="811.0" y="694.9" width="5.2" height="97.3" fill="#4E5A48" rx="2"/><rect x="811.0" y="792.1" width="5.4" height="48.6" fill="#4E5A48" opacity=".18" rx="2"/><rect x="979.6" y="708.7" width="8.0" height="83.4" fill="#4E5A48" rx="2"/><rect x="979.6" y="792.1" width="6.1" height="41.7" fill="#4E5A48" opacity=".18" rx="2"/><rect x="1167.3" y="699.3" width="7.8" height="92.8" fill="#4E5A48" rx="2"/><rect x="1167.3" y="792.1" width="5.8" height="46.4" fill="#4E5A48" opacity=".18" rx="2"/><rect x="1322.7" y="686.8" width="5.5" height="105.4" fill="#4E5A48" rx="2"/><rect x="1322.7" y="792.1" width="5.2" height="52.7" fill="#4E5A48" opacity=".18" rx="2"/><path d="M618,354 q5,-4 9.054535081144422,0 q5,-4 9.054535081144422,0" stroke="#4E5A48" stroke-width="2" fill="none" opacity=".5" stroke-linecap="round"/><path d="M1066,307 q5,-4 9.570018942700699,0 q5,-4 9.570018942700699,0" stroke="#4E5A48" stroke-width="2" fill="none" opacity=".5" stroke-linecap="round"/><path d="M660,305 q7,-6 13.51407565549016,0 q7,-6 13.51407565549016,0" stroke="#4E5A48" stroke-width="2" fill="none" opacity=".5" stroke-linecap="round"/><path d="M1037,376 q4,-3 7.792735870694742,0 q4,-3 7.792735870694742,0" stroke="#4E5A48" stroke-width="2" fill="none" opacity=".5" stroke-linecap="round"/><path d="M773,304 q6,-5 12.512711374554783,0 q6,-5 12.512711374554783,0" stroke="#4E5A48" stroke-width="2" fill="none" opacity=".5" stroke-linecap="round"/><path d="M1498,1146 Q1497,1117 1495,1098" stroke="#4E5A48" stroke-width="1.5" fill="none" stroke-linecap="round"/><path d="M315,1146 Q313,1133 310,1125" stroke="#4E5A48" stroke-width="1.5" fill="none" stroke-linecap="round"/><path d="M1133,1146 Q1128,1125 1120,1111" stroke="#4E5A48" stroke-width="1.5" fill="none" stroke-linecap="round"/><path d="M804,1146 Q806,1131 808,1121" stroke="#4E5A48" stroke-width="1.5" fill="none" stroke-linecap="round"/><path d="M1488,1146 Q1491,1113 1496,1092" stroke="#4E5A48" stroke-width="1.5" fill="none" stroke-linecap="round"/><path d="M1137,1146 Q1142,1107 1150,1082" stroke="#4E5A48" stroke-width="1.5" fill="none" stroke-linecap="round"/><path d="M1319,1146 Q1324,1117 1331,1098" stroke="#4E5A48" stroke-width="1.5" fill="none" stroke-linecap="round"/><path d="M403,1146 Q400,1127 394,1115" stroke="#4E5A48" stroke-width="1.5" fill="none" stroke-linecap="round"/><path d="M1347,1146 Q1343,1107 1335,1081" stroke="#4E5A48" stroke-width="1.5" fill="none" stroke-linecap="round"/><path d="M353,1146 Q353,1114 353,1092" stroke="#4E5A48" stroke-width="1.5" fill="none" stroke-linecap="round"/><path d="M677,1146 Q679,1110 683,1086" stroke="#4E5A48" stroke-width="1.5" fill="none" stroke-linecap="round"/><path d="M571,1146 Q572,1125 572,1110" stroke="#4E5A48" stroke-width="1.5" fill="none" stroke-linecap="round"/><path d="M614,1146 Q609,1122 601,1106" stroke="#4E5A48" stroke-width="1.5" fill="none" stroke-linecap="round"/><path d="M1175,1146 Q1172,1106 1167,1079" stroke="#4E5A48" stroke-width="1.5" fill="none" stroke-linecap="round"/><path d="M964,1146 Q967,1118 970,1099" stroke="#4E5A48" stroke-width="1.5" fill="none" stroke-linecap="round"/><path d="M410,1146 Q412,1106 416,1079" stroke="#4E5A48" stroke-width="1.5" fill="none" stroke-linecap="round"/><path d="M580,1146 Q578,1133 575,1124" stroke="#4E5A48" stroke-width="1.5" fill="none" stroke-linecap="round"/><path d="M1053,1146 Q1051,1111 1049,1088" stroke="#4E5A48" stroke-width="1.5" fill="none" stroke-linecap="round"/><path d="M369,1146 Q370,1108 372,1083" stroke="#4E5A48" stroke-width="1.5" fill="none" stroke-linecap="round"/><path d="M835,1146 Q830,1132 822,1122" stroke="#4E5A48" stroke-width="1.5" fill="none" stroke-linecap="round"/><path d="M528,1146 Q525,1119 522,1101" stroke="#4E5A48" stroke-width="1.5" fill="none" stroke-linecap="round"/><path d="M988,1146 Q993,1105 1001,1078" stroke="#4E5A48" stroke-width="1.5" fill="none" stroke-linecap="round"/><path d="M468,1146 Q473,1121 481,1104" stroke="#4E5A48" stroke-width="1.5" fill="none" stroke-linecap="round"/><path d="M99,1146 Q98,1106 97,1079" stroke="#4E5A48" stroke-width="1.5" fill="none" stroke-linecap="round"/><path d="M1143,1146 Q1141,1127 1138,1114" stroke="#4E5A48" stroke-width="1.5" fill="none" stroke-linecap="round"/><path d="M155,1146 Q153,1127 150,1114" stroke="#4E5A48" stroke-width="1.5" fill="none" stroke-linecap="round"/><path d="M860,1146 Q858,1133 855,1124" stroke="#4E5A48" stroke-width="1.5" fill="none" stroke-linecap="round"/><path d="M57,1146 Q55,1120 52,1103" stroke="#4E5A48" stroke-width="1.5" fill="none" stroke-linecap="round"/><path d="M175,1146 Q174,1130 172,1120" stroke="#4E5A48" stroke-width="1.5" fill="none" stroke-linecap="round"/><path d="M12,1146 Q11,1104 8,1076" stroke="#4E5A48" stroke-width="1.5" fill="none" stroke-linecap="round"/><path d="M1127,1146 Q1124,1105 1119,1078" stroke="#4E5A48" stroke-width="1.5" fill="none" stroke-linecap="round"/><path d="M1157,1146 Q1158,1109 1160,1085" stroke="#4E5A48" stroke-width="1.5" fill="none" stroke-linecap="round"/><path d="M1029,1146 Q1025,1121 1019,1104" stroke="#4E5A48" stroke-width="1.5" fill="none" stroke-linecap="round"/><path d="M863,1146 Q859,1127 853,1114" stroke="#4E5A48" stroke-width="1.5" fill="none" stroke-linecap="round"/><path d="M1418,1146 Q1422,1110 1427,1086" stroke="#4E5A48" stroke-width="1.5" fill="none" stroke-linecap="round"/><path d="M1323,1146 Q1322,1134 1321,1125" stroke="#4E5A48" stroke-width="1.5" fill="none" stroke-linecap="round"/><path d="M953,1146 Q953,1113 953,1091" stroke="#4E5A48" stroke-width="1.5" fill="none" stroke-linecap="round"/><path d="M1453,1146 Q1458,1108 1465,1083" stroke="#4E5A48" stroke-width="1.5" fill="none" stroke-linecap="round"/><path d="M1320,1146 Q1322,1111 1326,1088" stroke="#4E5A48" stroke-width="1.5" fill="none" stroke-linecap="round"/><path d="M1506,1146 Q1503,1131 1499,1121" stroke="#4E5A48" stroke-width="1.5" fill="none" stroke-linecap="round"/><path d="M1107,1146 Q1110,1110 1115,1086" stroke="#4E5A48" stroke-width="1.5" fill="none" stroke-linecap="round"/><path d="M1373,1146 Q1376,1108 1381,1082" stroke="#4E5A48" stroke-width="1.5" fill="none" stroke-linecap="round"/><path d="M289,1146 Q287,1125 284,1111" stroke="#4E5A48" stroke-width="1.5" fill="none" stroke-linecap="round"/><path d="M290,1146 Q284,1104 276,1076" stroke="#4E5A48" stroke-width="1.5" fill="none" stroke-linecap="round"/><path d="M1186,1146 Q1190,1134 1197,1126" stroke="#4E5A48" stroke-width="1.5" fill="none" stroke-linecap="round"/><path d="M50,1146 Q44,1110 36,1085" stroke="#4E5A48" stroke-width="1.5" fill="none" stroke-linecap="round"/><path d="M122,1146 Q120,1113 115,1091" stroke="#4E5A48" stroke-width="1.5" fill="none" stroke-linecap="round"/><path d="M303,1146 Q305,1111 309,1087" stroke="#4E5A48" stroke-width="1.5" fill="none" stroke-linecap="round"/><path d="M858,1146 Q858,1133 856,1124" stroke="#4E5A48" stroke-width="1.5" fill="none" stroke-linecap="round"/><path d="M889,1146 Q892,1130 895,1119" stroke="#4E5A48" stroke-width="1.5" fill="none" stroke-linecap="round"/><path d="M751,1146 Q753,1110 754,1085" stroke="#4E5A48" stroke-width="1.5" fill="none" stroke-linecap="round"/><path d="M37,1146 Q37,1109 38,1084" stroke="#4E5A48" stroke-width="1.5" fill="none" stroke-linecap="round"/><path d="M319,1146 Q320,1126 321,1112" stroke="#4E5A48" stroke-width="1.5" fill="none" stroke-linecap="round"/><path d="M754,1146 Q758,1124 765,1110" stroke="#4E5A48" stroke-width="1.5" fill="none" stroke-linecap="round"/><path d="M211,1146 Q214,1119 218,1101" stroke="#4E5A48" stroke-width="1.5" fill="none" stroke-linecap="round"/><path d="M1032,1146 Q1026,1120 1018,1103" stroke="#4E5A48" stroke-width="1.5" fill="none" stroke-linecap="round"/><path d="M609,1146 Q612,1115 616,1094" stroke="#4E5A48" stroke-width="1.5" fill="none" stroke-linecap="round"/><path d="M1349,1146 Q1352,1133 1356,1124" stroke="#4E5A48" stroke-width="1.5" fill="none" stroke-linecap="round"/><path d="M483,1146 Q485,1132 489,1122" stroke="#4E5A48" stroke-width="1.5" fill="none" stroke-linecap="round"/><path d="M7,1146 Q10,1120 16,1102" stroke="#4E5A48" stroke-width="1.5" fill="none" stroke-linecap="round"/><path d="M1596,1146 Q1601,1105 1609,1078" stroke="#4E5A48" stroke-width="1.5" fill="none" stroke-linecap="round"/><path d="M1095,1146 Q1090,1111 1083,1087" stroke="#4E5A48" stroke-width="1.5" fill="none" stroke-linecap="round"/><path d="M475,1146 Q475,1111 475,1088" stroke="#4E5A48" stroke-width="1.5" fill="none" stroke-linecap="round"/><path d="M1507,1146 Q1502,1128 1495,1116" stroke="#4E5A48" stroke-width="1.5" fill="none" stroke-linecap="round"/><path d="M668,1146 Q665,1113 659,1092" stroke="#4E5A48" stroke-width="1.5" fill="none" stroke-linecap="round"/><path d="M46,1146 Q47,1119 49,1101" stroke="#4E5A48" stroke-width="1.5" fill="none" stroke-linecap="round"/><path d="M1013,1146 Q1012,1125 1010,1111" stroke="#4E5A48" stroke-width="1.5" fill="none" stroke-linecap="round"/><path d="M656,1146 Q661,1104 668,1076" stroke="#4E5A48" stroke-width="1.5" fill="none" stroke-linecap="round"/><path d="M446,1146 Q441,1124 434,1110" stroke="#4E5A48" stroke-width="1.5" fill="none" stroke-linecap="round"/><path d="M1257,1146 Q1260,1124 1265,1109" stroke="#4E5A48" stroke-width="1.5" fill="none" stroke-linecap="round"/><path d="M726,1146 Q728,1132 731,1122" stroke="#4E5A48" stroke-width="1.5" fill="none" stroke-linecap="round"/><path d="M1166,1146 Q1167,1114 1167,1093" stroke="#4E5A48" stroke-width="1.5" fill="none" stroke-linecap="round"/><path d="M557,1146 Q554,1110 550,1085" stroke="#4E5A48" stroke-width="1.5" fill="none" stroke-linecap="round"/><path d="M347,1146 Q348,1118 349,1099" stroke="#4E5A48" stroke-width="1.5" fill="none" stroke-linecap="round"/><path d="M488,1146 Q485,1127 479,1114" stroke="#4E5A48" stroke-width="1.5" fill="none" stroke-linecap="round"/><path d="M1403,1146 Q1398,1134 1392,1126" stroke="#4E5A48" stroke-width="1.5" fill="none" stroke-linecap="round"/><path d="M169,1146 Q174,1105 182,1077" stroke="#4E5A48" stroke-width="1.5" fill="none" stroke-linecap="round"/><path d="M249,1146 Q253,1109 259,1084" stroke="#4E5A48" stroke-width="1.5" fill="none" stroke-linecap="round"/><path d="M908,1146 Q909,1110 910,1087" stroke="#4E5A48" stroke-width="1.5" fill="none" stroke-linecap="round"/><path d="M66,1146 Q70,1133 77,1124" stroke="#4E5A48" stroke-width="1.5" fill="none" stroke-linecap="round"/><path d="M1549,1146 Q1544,1114 1538,1093" stroke="#4E5A48" stroke-width="1.5" fill="none" stroke-linecap="round"/><path d="M519,1146 Q521,1121 525,1105" stroke="#4E5A48" stroke-width="1.5" fill="none" stroke-linecap="round"/><path d="M127,1146 Q128,1112 131,1089" stroke="#4E5A48" stroke-width="1.5" fill="none" stroke-linecap="round"/><path d="M1469,1146 Q1470,1117 1472,1098" stroke="#4E5A48" stroke-width="1.5" fill="none" stroke-linecap="round"/><path d="M519,1146 Q514,1133 508,1125" stroke="#4E5A48" stroke-width="1.5" fill="none" stroke-linecap="round"/><path d="M575,1146 Q572,1112 566,1090" stroke="#4E5A48" stroke-width="1.5" fill="none" stroke-linecap="round"/><path d="M1205,1146 Q1206,1112 1206,1089" stroke="#4E5A48" stroke-width="1.5" fill="none" stroke-linecap="round"/><path d="M783,1146 Q784,1120 785,1103" stroke="#4E5A48" stroke-width="1.5" fill="none" stroke-linecap="round"/><path d="M1298,1146 Q1292,1123 1283,1108" stroke="#4E5A48" stroke-width="1.5" fill="none" stroke-linecap="round"/><path d="M648,1146 Q643,1105 635,1078" stroke="#4E5A48" stroke-width="1.5" fill="none" stroke-linecap="round"/>
  <rect width="1600" height="1200" fill="url(#vig)"/>
  <rect width="1600" height="1200" filter="url(#grain)" opacity="0.055" style="mix-blend-mode:overlay"/>
</svg>