<svg xmlns="http://www.w3.org/2000/svg" viewBox="0 0 1600 1200" width="1600" height="1200" preserveAspectRatio="xMidYMid slice" role="img" aria-label="Wad &amp; Weids sfeerbeeld">
  <defs>
    <linearGradient id="sky" x1="0" y1="0" x2="0" y2="1"><stop offset="0" stop-color="#4E6C79"/><stop offset="0.34" stop-color="#C58F5E"/><stop offset="0.62" stop-color="#EFC189"/><stop offset="1" stop-color="#F6DCB4"/></linearGradient>
    <radialGradient id="vig" cx=".5" cy=".45" r=".78">
      <stop offset=".55" stop-color="#0E1714" stop-opacity="0"/><stop offset="1" stop-color="#0E1714" stop-opacity="0.42"/>
    </radialGradient>
    <filter id="grain"><feTurbulence type="fractalNoise" baseFrequency=".82" numOctaves="3" seed="44"/><feColorMatrix type="saturate" values="0"/></filter>
    
  </defs>
  <rect width="1600" height="1200" fill="url(#sky)"/>
  <radialGradient id="sun"><stop offset="0" stop-color="#FFE3B0" stop-opacity="1"/><stop offset=".35" stop-color="#FFE3B0" stop-opacity=".38"/><stop offset="1" stop-color="#FFE3B0" stop-opacity="0"/></radialGradient>
       <circle cx="1267.576943397522" cy="840" r="480" fill="url(#sun)"/>
       <circle cx="1267.576943397522" cy="840" r="44.8" fill="#FFE3B0" opacity=".55"/>
  <filter id="b0" x="-10%" y="-10%" width="120%" height="130%"><feGaussianBlur stdDeviation="3"/></filter><path d="M0,630 Q0,630 7,631 Q13,631 20,632 Q27,632 33,633 Q40,633 47,633 Q53,634 60,634 Q67,635 73,636 Q80,636 87,637 Q93,637 100,638 Q107,638 113,639 Q120,639 127,640 Q133,640 140,641 Q147,641 153,642 Q160,642 167,643 Q173,643 180,643 Q187,644 193,644 Q200,644 207,645 Q213,645 220,645 Q227,645 233,646 Q240,646 247,646 Q253,646 260,646 Q267,646 273,646 Q280,646 287,646 Q293,646 300,646 Q307,646 313,646 Q320,646 327,646 Q333,645 340,645 Q347,645 353,645 Q360,645 367,645 Q373,645 380,644 Q387,644 393,644 Q400,644 407,644 Q413,644 420,644 Q427,643 433,643 Q440,643 447,643 Q453,643 460,643 Q467,643 473,643 Q480,643 487,643 Q493,643 500,643 Q507,643 513,643 Q520,643 527,643 Q533,643 540,643 Q547,644 553,644 Q560,644 567,644 Q573,644 580,644 Q587,644 593,644 Q600,644 607,645 Q613,645 620,645 Q627,645 633,645 Q640,645 647,645 Q653,645 660,645 Q667,645 673,645 Q680,645 687,645 Q693,645 700,645 Q707,645 713,645 Q720,645 727,645 Q733,645 740,645 Q747,645 753,645 Q760,645 767,645 Q773,645 780,645 Q787,645 793,645 Q800,645 807,645 Q813,644 820,644 Q827,644 833,644 Q840,644 847,644 Q853,645 860,645 Q867,645 873,645 Q880,645 887,645 Q893,645 900,645 Q907,645 913,645 Q920,645 927,646 Q933,646 940,646 Q947,646 953,646 Q960,646 967,646 Q973,647 980,647 Q987,647 993,647 Q1000,647 1007,647 Q1013,647 1020,647 Q1027,647 1033,647 Q1040,647 1047,647 Q1053,647 1060,647 Q1067,647 1073,647 Q1080,646 1087,646 Q1093,646 1100,646 Q1107,645 1113,645 Q1120,645 1127,644 Q1133,644 1140,644 Q1147,643 1153,643 Q1160,642 1167,642 Q1173,641 1180,641 Q1187,640 1193,640 Q1200,639 1207,639 Q1213,638 1220,637 Q1227,637 1233,636 Q1240,636 1247,635 Q1253,635 1260,634 Q1267,634 1273,633 Q1280,633 1287,632 Q1293,632 1300,631 Q1307,631 1313,630 Q1320,630 1327,630 Q1333,629 1340,629 Q1347,629 1353,628 Q1360,628 1367,628 Q1373,628 1380,627 Q1387,627 1393,627 Q1400,627 1407,627 Q1413,627 1420,626 Q1427,626 1433,626 Q1440,626 1447,626 Q1453,626 1460,626 Q1467,626 1473,626 Q1480,626 1487,625 Q1493,625 1500,625 Q1507,625 1513,625 Q1520,625 1527,625 Q1533,625 1540,625 Q1547,625 1553,624 Q1560,624 1567,624 Q1573,624 1580,624 Q1587,624 1593,624 L1600,1200 L0,1200 Z" fill="#8E938C" opacity="0.85" filter="url(#b0)"/><path d="M0,717 Q0,717 7,718 Q13,718 20,719 Q27,719 33,719 Q40,720 47,720 Q53,720 60,721 Q67,721 73,721 Q80,722 87,722 Q93,722 100,722 Q107,723 113,723 Q120,723 127,723 Q133,724 140,724 Q147,724 153,725 Q160,725 167,726 Q173,726 180,727 Q187,728 193,728 Q200,729 207,730 Q213,731 220,732 Q227,733 233,735 Q240,736 247,737 Q253,738 260,740 Q267,741 273,742 Q280,743 287,745 Q293,746 300,747 Q307,748 313,749 Q320,750 327,751 Q333,751 340,752 Q347,753 353,753 Q360,753 367,754 Q373,754 380,754 Q387,754 393,753 Q400,753 407,753 Q413,753 420,752 Q427,752 433,751 Q440,751 447,751 Q453,750 460,750 Q467,749 473,749 Q480,748 487,748 Q493,748 500,748 Q507,747 513,747 Q520,747 527,747 Q533,747 540,747 Q547,747 553,746 Q560,746 567,746 Q573,746 580,746 Q587,746 593,746 Q600,746 607,745 Q613,745 620,745 Q627,744 633,744 Q640,744 647,743 Q653,743 660,742 Q667,742 673,741 Q680,741 687,740 Q693,740 700,739 Q707,739 713,739 Q720,738 727,738 Q733,738 740,738 Q747,738 753,738 Q760,738 767,738 Q773,738 780,738 Q787,738 793,739 Q800,739 807,739 Q813,740 820,740 Q827,740 833,740 Q840,741 847,741 Q853,741 860,741 Q867,741 873,741 Q880,741 887,740 Q893,740 900,739 Q907,739 913,738 Q920,738 927,737 Q933,736 940,735 Q947,734 953,733 Q960,732 967,730 Q973,729 980,728 Q987,727 993,726 Q1000,725 1007,723 Q1013,722 1020,721 Q1027,720 1033,720 Q1040,719 1047,718 Q1053,717 1060,717 Q1067,716 1073,716 Q1080,715 1087,715 Q1093,714 1100,714 Q1107,714 1113,713 Q1120,713 1127,713 Q1133,713 1140,712 Q1147,712 1153,712 Q1160,712 1167,711 Q1173,711 1180,711 Q1187,711 1193,710 Q1200,710 1207,710 Q1213,709 1220,709 Q1227,709 1233,709 Q1240,709 1247,709 Q1253,709 1260,709 Q1267,709 1273,709 Q1280,709 1287,709 Q1293,710 1300,710 Q1307,711 1313,712 Q1320,712 1327,713 Q1333,714 1340,715 Q1347,716 1353,717 Q1360,718 1367,719 Q1373,720 1380,721 Q1387,722 1393,723 Q1400,724 1407,724 Q1413,725 1420,726 Q1427,727 1433,727 Q1440,728 1447,728 Q1453,728 1460,728 Q1467,729 1473,729 Q1480,729 1487,729 Q1493,728 1500,728 Q1507,728 1513,728 Q1520,728 1527,727 Q1533,727 1540,727 Q1547,727 1553,726 Q1560,726 1567,726 Q1573,726 1580,726 Q1587,726 1593,726 L1600,1200 L0,1200 Z" fill="#7C7F79" opacity="0.9"/><path d="M0,820 Q0,820 7,820 Q13,820 20,820 Q27,820 33,820 Q40,820 47,820 Q53,820 60,820 Q67,820 73,821 Q80,821 87,821 Q93,821 100,821 Q107,821 113,821 Q120,821 127,821 Q133,821 140,821 Q147,822 153,822 Q160,822 167,822 Q173,822 180,822 Q187,822 193,822 Q200,822 207,823 Q213,823 220,823 Q227,823 233,823 Q240,823 247,823 Q253,823 260,823 Q267,823 273,823 Q280,823 287,823 Q293,823 300,823 Q307,823 313,823 Q320,823 327,823 Q333,823 340,823 Q347,823 353,823 Q360,823 367,822 Q373,822 380,822 Q387,822 393,822 Q400,822 407,822 Q413,822 420,822 Q427,822 433,822 Q440,821 447,821 Q453,821 460,821 Q467,821 473,821 Q480,821 487,821 Q493,821 500,821 Q507,821 513,821 Q520,821 527,821 Q533,821 540,821 Q547,821 553,821 Q560,821 567,821 Q573,821 580,821 Q587,821 593,821 Q600,821 607,821 Q613,821 620,821 Q627,821 633,821 Q640,821 647,821 Q653,821 660,821 Q667,821 673,821 Q680,821 687,821 Q693,821 700,821 Q707,821 713,821 Q720,821 727,821 Q733,821 740,821 Q747,821 753,821 Q760,821 767,821 Q773,821 780,821 Q787,821 793,821 Q800,821 807,821 Q813,821 820,821 Q827,821 833,821 Q840,820 847,820 Q853,820 860,820 Q867,820 873,820 Q880,820 887,820 Q893,820 900,820 Q907,820 913,820 Q920,820 927,820 Q933,820 940,821 Q947,821 953,821 Q960,821 967,821 Q973,821 980,821 Q987,821 993,821 Q1000,822 1007,822 Q1013,822 1020,822 Q1027,822 1033,823 Q1040,823 1047,823 Q1053,823 1060,824 Q1067,824 1073,824 Q1080,824 1087,825 Q1093,825 1100,825 Q1107,826 1113,826 Q1120,826 1127,827 Q1133,827 1140,827 Q1147,828 1153,828 Q1160,828 1167,829 Q1173,829 1180,829 Q1187,830 1193,830 Q1200,830 1207,831 Q1213,831 1220,831 Q1227,831 1233,832 Q1240,832 1247,832 Q1253,832 1260,833 Q1267,833 1273,833 Q1280,833 1287,833 Q1293,833 1300,834 Q1307,834 1313,834 Q1320,834 1327,834 Q1333,834 1340,834 Q1347,834 1353,834 Q1360,834 1367,834 Q1373,835 1380,835 Q1387,835 1393,835 Q1400,835 1407,835 Q1413,835 1420,835 Q1427,835 1433,835 Q1440,835 1447,835 Q1453,835 1460,835 Q1467,835 1473,835 Q1480,835 1487,835 Q1493,835 1500,835 Q1507,835 1513,835 Q1520,835 1527,835 Q1533,835 1540,835 Q1547,835 1553,835 Q1560,835 1567,835 Q1573,835 1580,835 Q1587,835 1593,835 L1600,1200 L0,1200 Z" fill="#B99268"/><path d="M0,922 Q0,922 7,923 Q13,923 20,923 Q27,924 33,924 Q40,924 47,925 Q53,925 60,925 Q67,926 73,926 Q80,926 87,926 Q93,926 100,927 Q107,927 113,927 Q120,928 127,928 Q133,929 140,929 Q147,930 153,931 Q160,932 167,933 Q173,934 180,935 Q187,936 193,938 Q200,939 207,940 Q213,941 220,942 Q227,943 233,944 Q240,945 247,946 Q253,946 260,947 Q267,947 273,947 Q280,947 287,947 Q293,947 300,946 Q307,946 313,946 Q320,945 327,945 Q333,944 340,944 Q347,943 353,943 Q360,943 367,943 Q373,943 380,944 Q387,944 393,945 Q400,945 407,946 Q413,947 420,948 Q427,949 433,951 Q440,952 447,953 Q453,954 460,955 Q467,957 473,958 Q480,959 487,960 Q493,960 500,961 Q507,962 513,963 Q520,963 527,964 Q533,964 540,965 Q547,965 553,966 Q560,966 567,967 Q573,967 580,968 Q587,969 593,969 Q600,970 607,971 Q613,971 620,972 Q627,973 633,974 Q640,974 647,975 Q653,975 660,975 Q667,975 673,975 Q680,975 687,975 Q693,974 700,973 Q707,973 713,971 Q720,970 727,969 Q733,967 740,966 Q747,964 753,963 Q760,961 767,959 Q773,958 780,956 Q787,955 793,953 Q800,952 807,951 Q813,950 820,949 Q827,949 833,948 Q840,948 847,948 Q853,947 860,947 Q867,947 873,947 Q880,947 887,947 Q893,947 900,947 Q907,947 913,946 Q920,946 927,946 Q933,945 940,945 Q947,944 953,944 Q960,943 967,943 Q973,942 980,942 Q987,941 993,941 Q1000,940 1007,940 Q1013,939 1020,939 Q1027,939 1033,939 Q1040,939 1047,939 Q1053,939 1060,939 Q1067,939 1073,939 Q1080,939 1087,939 Q1093,939 1100,939 Q1107,938 1113,938 Q1120,937 1127,936 Q1133,936 1140,934 Q1147,933 1153,932 Q1160,931 1167,930 Q1173,928 1180,927 Q1187,926 1193,925 Q1200,923 1207,922 Q1213,921 1220,921 Q1227,920 1233,920 Q1240,919 1247,920 Q1253,920 1260,920 Q1267,920 1273,921 Q1280,922 1287,923 Q1293,924 1300,925 Q1307,926 1313,927 Q1320,928 1327,929 Q1333,930 1340,932 Q1347,933 1353,934 Q1360,935 1367,935 Q1373,936 1380,937 Q1387,938 1393,939 Q1400,939 1407,940 Q1413,941 1420,942 Q1427,943 1433,944 Q1440,945 1447,946 Q1453,947 1460,948 Q1467,949 1473,950 Q1480,951 1487,953 Q1493,954 1500,955 Q1507,956 1513,957 Q1520,958 1527,959 Q1533,960 1540,960 Q1547,961 1553,961 Q1560,961 1567,961 Q1573,961 1580,961 Q1587,961 1593,960 L1600,1200 L0,1200 Z" fill="#8E7A5F"/><path d="M0,1046 Q0,1046 7,1046 Q13,1047 20,1047 Q27,1047 33,1048 Q40,1048 47,1049 Q53,1050 60,1050 Q67,1051 73,1052 Q80,1053 87,1053 Q93,1054 100,1055 Q107,1056 113,1057 Q120,1057 127,1058 Q133,1059 140,1059 Q147,1060 153,1060 Q160,1061 167,1061 Q173,1061 180,1062 Q187,1062 193,1062 Q200,1062 207,1061 Q213,1061 220,1061 Q227,1060 233,1060 Q240,1059 247,1059 Q253,1058 260,1057 Q267,1056 273,1056 Q280,1055 287,1054 Q293,1053 300,1052 Q307,1051 313,1050 Q320,1049 327,1048 Q333,1048 340,1047 Q347,1046 353,1045 Q360,1044 367,1043 Q373,1043 380,1042 Q387,1041 393,1040 Q400,1040 407,1039 Q413,1038 420,1038 Q427,1037 433,1036 Q440,1035 447,1035 Q453,1034 460,1033 Q467,1032 473,1032 Q480,1031 487,1030 Q493,1029 500,1028 Q507,1027 513,1026 Q520,1025 527,1024 Q533,1022 540,1021 Q547,1020 553,1019 Q560,1018 567,1016 Q573,1015 580,1014 Q587,1013 593,1012 Q600,1010 607,1009 Q613,1008 620,1007 Q627,1007 633,1006 Q640,1005 647,1004 Q653,1004 660,1003 Q667,1003 673,1003 Q680,1003 687,1002 Q693,1002 700,1003 Q707,1003 713,1003 Q720,1003 727,1004 Q733,1004 740,1005 Q747,1006 753,1006 Q760,1007 767,1008 Q773,1008 780,1009 Q787,1010 793,1011 Q800,1011 807,1012 Q813,1013 820,1013 Q827,1014 833,1014 Q840,1015 847,1015 Q853,1015 860,1016 Q867,1016 873,1016 Q880,1016 887,1016 Q893,1016 900,1016 Q907,1016 913,1016 Q920,1015 927,1015 Q933,1015 940,1015 Q947,1014 953,1014 Q960,1014 967,1013 Q973,1013 980,1013 Q987,1012 993,1012 Q1000,1012 1007,1012 Q1013,1012 1020,1012 Q1027,1011 1033,1011 Q1040,1011 1047,1012 Q1053,1012 1060,1012 Q1067,1012 1073,1012 Q1080,1012 1087,1013 Q1093,1013 1100,1013 Q1107,1014 1113,1014 Q1120,1014 1127,1014 Q1133,1015 1140,1015 Q1147,1015 1153,1015 Q1160,1016 1167,1016 Q1173,1016 1180,1016 Q1187,1016 1193,1016 Q1200,1016 1207,1016 Q1213,1016 1220,1016 Q1227,1016 1233,1016 Q1240,1016 1247,1016 Q1253,1016 1260,1016 Q1267,1016 1273,1016 Q1280,1016 1287,1017 Q1293,1017 1300,1017 Q1307,1018 1313,1018 Q1320,1019 1327,1019 Q1333,1020 1340,1021 Q1347,1022 1353,1023 Q1360,1024 1367,1025 Q1373,1026 1380,1027 Q1387,1028 1393,1030 Q1400,1031 1407,1033 Q1413,1034 1420,1036 Q1427,1037 1433,1039 Q1440,1041 1447,1042 Q1453,1044 1460,1045 Q1467,1047 1473,1048 Q1480,1050 1487,1051 Q1493,1052 1500,1054 Q1507,1055 1513,1056 Q1520,1057 1527,1057 Q1533,1058 1540,1059 Q1547,1060 1553,1060 Q1560,1061 1567,1061 Q1573,1061 1580,1061 Q1587,1061 1593,1061 L1600,1200 L0,1200 Z" fill="#43443C"/><path d="M0,1145 Q0,1145 7,1143 Q13,1142 20,1140 Q27,1137 33,1135 Q40,1133 47,1131 Q53,1128 60,1126 Q67,1124 73,1122 Q80,1120 87,1118 Q93,1117 100,1116 Q107,1115 113,1115 Q120,1114 127,1114 Q133,1114 140,1114 Q147,1114 153,1114 Q160,1114 167,1114 Q173,1114 180,1114 Q187,1114 193,1115 Q200,1115 207,1115 Q213,1115 220,1115 Q227,1115 233,1116 Q240,1116 247,1117 Q253,1118 260,1119 Q267,1120 273,1122 Q280,1123 287,1125 Q293,1127 300,1129 Q307,1130 313,1132 Q320,1134 327,1135 Q333,1136 340,1137 Q347,1138 353,1138 Q360,1139 367,1139 Q373,1139 380,1138 Q387,1138 393,1137 Q400,1137 407,1136 Q413,1135 420,1135 Q427,1135 433,1135 Q440,1135 447,1135 Q453,1135 460,1136 Q467,1137 473,1138 Q480,1139 487,1141 Q493,1142 500,1144 Q507,1145 513,1146 Q520,1148 527,1149 Q533,1150 540,1151 Q547,1152 553,1153 Q560,1154 567,1154 Q573,1155 580,1156 Q587,1157 593,1158 Q600,1158 607,1159 Q613,1160 620,1162 Q627,1163 633,1164 Q640,1165 647,1167 Q653,1168 660,1169 Q667,1170 673,1171 Q680,1171 687,1172 Q693,1172 700,1171 Q707,1171 713,1170 Q720,1169 727,1167 Q733,1166 740,1164 Q747,1162 753,1160 Q760,1158 767,1156 Q773,1154 780,1152 Q787,1150 793,1148 Q800,1147 807,1146 Q813,1145 820,1144 Q827,1143 833,1143 Q840,1142 847,1142 Q853,1141 860,1141 Q867,1141 873,1141 Q880,1140 887,1140 Q893,1139 900,1138 Q907,1138 913,1137 Q920,1136 927,1135 Q933,1134 940,1134 Q947,1133 953,1133 Q960,1132 967,1132 Q973,1132 980,1132 Q987,1132 993,1132 Q1000,1132 1007,1132 Q1013,1132 1020,1132 Q1027,1133 1033,1132 Q1040,1132 1047,1132 Q1053,1131 1060,1130 Q1067,1129 1073,1128 Q1080,1126 1087,1125 Q1093,1123 1100,1121 Q1107,1119 1113,1118 Q1120,1116 1127,1114 Q1133,1113 1140,1112 Q1147,1111 1153,1110 Q1160,1110 1167,1110 Q1173,1110 1180,1110 Q1187,1111 1193,1112 Q1200,1113 1207,1114 Q1213,1115 1220,1116 Q1227,1118 1233,1119 Q1240,1120 1247,1121 Q1253,1122 1260,1123 Q1267,1124 1273,1125 Q1280,1126 1287,1127 Q1293,1128 1300,1129 Q1307,1130 1313,1132 Q1320,1133 1327,1135 Q1333,1136 1340,1138 Q1347,1140 1353,1142 Q1360,1144 1367,1146 Q1373,1147 1380,1149 Q1387,1151 1393,1152 Q1400,1153 1407,1154 Q1413,1154 1420,1155 Q1427,1155 1433,1154 Q1440,1154 1447,1154 Q1453,1153 1460,1152 Q1467,1151 1473,1151 Q1480,1150 1487,1149 Q1493,1149 1500,1149 Q1507,1148 1513,1149 Q1520,1149 1527,1150 Q1533,1150 1540,1151 Q1547,1152 1553,1153 Q1560,1155 1567,1156 Q1573,1157 1580,1158 Q1587,1159 1593,1160 L1600,1200 L0,1200 Z" fill="#24261F"/>
  <rect x="-40" y="720" width="1680" height="120" fill="url(#mist0)" opacity="0.3"/><linearGradient id="mist0" x1="0" y1="0" x2="0" y2="1"><stop offset="0" stop-color="#EFEAE0" stop-opacity="0"/><stop offset=".45" stop-color="#EFEAE0" stop-opacity="1"/><stop offset="1" stop-color="#EFEAE0" stop-opacity="0"/></linearGradient>
  <path d="M1146,1146 Q1147,1107 1148,1081" stroke="#24261F" stroke-width="1.5" fill="none" stroke-linecap="round"/><path d="M1599,1146 Q1602,1117 1608,1097" stroke="#24261F" stroke-width="1.5" fill="none" stroke-linecap="round"/><path d="M1207,1146 Q1210,1113 1214,1091" stroke="#24261F" stroke-width="1.5" fill="none" stroke-linecap="round"/><path d="M39,1146 Q43,1127 48,1114" stroke="#24261F" stroke-width="1.5" fill="none" stroke-linecap="round"/><path d="M1153,1146 Q1150,1118 1147,1099" stroke="#24261F" stroke-width="1.5" fill="none" stroke-linecap="round"/><path d="M442,1146 Q437,1121 429,1104" stroke="#24261F" stroke-width="1.5" fill="none" stroke-linecap="round"/><path d="M177,1146 Q178,1113 180,1092" stroke="#24261F" stroke-width="1.5" fill="none" stroke-linecap="round"/><path d="M1048,1146 Q1043,1107 1035,1082" stroke="#24261F" stroke-width="1.5" fill="none" stroke-linecap="round"/><path d="M1465,1146 Q1466,1123 1467,1108" stroke="#24261F" stroke-width="1.5" fill="none" stroke-linecap="round"/><path d="M1499,1146 Q1503,1134 1508,1126" stroke="#24261F" stroke-width="1.5" fill="none" stroke-linecap="round"/><path d="M174,1146 Q178,1110 184,1087" stroke="#24261F" stroke-width="1.5" fill="none" stroke-linecap="round"/><path d="M918,1146 Q915,1130 910,1119" stroke="#24261F" stroke-width="1.5" fill="none" stroke-linecap="round"/><path d="M646,1146 Q643,1104 638,1076" stroke="#24261F" stroke-width="1.5" fill="none" stroke-linecap="round"/><path d="M481,1146 Q478,1117 474,1097" stroke="#24261F" stroke-width="1.5" fill="none" stroke-linecap="round"/><path d="M849,1146 Q854,1111 860,1087" stroke="#24261F" stroke-width="1.5" fill="none" stroke-linecap="round"/><path d="M504,1146 Q506,1115 510,1094" stroke="#24261F" stroke-width="1.5" fill="none" stroke-linecap="round"/><path d="M888,1146 Q884,1132 879,1123" stroke="#24261F" stroke-width="1.5" fill="none" stroke-linecap="round"/><path d="M676,1146 Q673,1129 669,1117" stroke="#24261F" stroke-width="1.5" fill="none" stroke-linecap="round"/><path d="M1372,1146 Q1368,1105 1362,1078" stroke="#24261F" stroke-width="1.5" fill="none" stroke-linecap="round"/><path d="M1212,1146 Q1208,1105 1201,1077" stroke="#24261F" stroke-width="1.5" fill="none" stroke-linecap="round"/><path d="M220,1146 Q221,1114 223,1093" stroke="#24261F" stroke-width="1.5" fill="none" stroke-linecap="round"/><path d="M776,1146 Q776,1109 776,1084" stroke="#24261F" stroke-width="1.5" fill="none" stroke-linecap="round"/><path d="M829,1146 Q828,1130 827,1120" stroke="#24261F" stroke-width="1.5" fill="none" stroke-linecap="round"/><path d="M1418,1146 Q1420,1120 1424,1102" stroke="#24261F" stroke-width="1.5" fill="none" stroke-linecap="round"/><path d="M489,1146 Q487,1113 485,1090" stroke="#24261F" stroke-width="1.5" fill="none" stroke-linecap="round"/><path d="M759,1146 Q754,1113 747,1090" stroke="#24261F" stroke-width="1.5" fill="none" stroke-linecap="round"/><path d="M839,1146 Q840,1107 841,1081" stroke="#24261F" stroke-width="1.5" fill="none" stroke-linecap="round"/><path d="M1310,1146 Q1309,1110 1308,1085" stroke="#24261F" stroke-width="1.5" fill="none" stroke-linecap="round"/><path d="M1311,1146 Q1313,1113 1315,1092" stroke="#24261F" stroke-width="1.5" fill="none" stroke-linecap="round"/><path d="M1065,1146 Q1060,1115 1054,1094" stroke="#24261F" stroke-width="1.5" fill="none" stroke-linecap="round"/><path d="M1575,1146 Q1577,1132 1580,1123" stroke="#24261F" stroke-width="1.5" fill="none" stroke-linecap="round"/><path d="M440,1146 Q435,1107 427,1081" stroke="#24261F" stroke-width="1.5" fill="none" stroke-linecap="round"/><path d="M147,1146 Q143,1116 137,1097" stroke="#24261F" stroke-width="1.5" fill="none" stroke-linecap="round"/><path d="M1181,1146 Q1182,1104 1183,1076" stroke="#24261F" stroke-width="1.5" fill="none" stroke-linecap="round"/><path d="M343,1146 Q343,1127 344,1114" stroke="#24261F" stroke-width="1.5" fill="none" stroke-linecap="round"/><path d="M1444,1146 Q1449,1124 1455,1109" stroke="#24261F" stroke-width="1.5" fill="none" stroke-linecap="round"/><path d="M1488,1146 Q1490,1118 1492,1099" stroke="#24261F" stroke-width="1.5" fill="none" stroke-linecap="round"/><path d="M878,1146 Q877,1108 875,1083" stroke="#24261F" stroke-width="1.5" fill="none" stroke-linecap="round"/><path d="M713,1146 Q712,1113 709,1090" stroke="#24261F" stroke-width="1.5" fill="none" stroke-linecap="round"/><path d="M220,1146 Q219,1118 218,1100" stroke="#24261F" stroke-width="1.5" fill="none" stroke-linecap="round"/><path d="M125,1146 Q124,1126 122,1113" stroke="#24261F" stroke-width="1.5" fill="none" stroke-linecap="round"/><path d="M1389,1146 Q1392,1131 1396,1121" stroke="#24261F" stroke-width="1.5" fill="none" stroke-linecap="round"/><path d="M576,1146 Q575,1120 573,1103" stroke="#24261F" stroke-width="1.5" fill="none" stroke-linecap="round"/><path d="M829,1146 Q828,1109 827,1085" stroke="#24261F" stroke-width="1.5" fill="none" stroke-linecap="round"/><path d="M1475,1146 Q1478,1132 1482,1123" stroke="#24261F" stroke-width="1.5" fill="none" stroke-linecap="round"/><path d="M1004,1146 Q1003,1115 1002,1094" stroke="#24261F" stroke-width="1.5" fill="none" stroke-linecap="round"/><path d="M1481,1146 Q1479,1111 1476,1087" stroke="#24261F" stroke-width="1.5" fill="none" stroke-linecap="round"/><path d="M995,1146 Q994,1113 992,1091" stroke="#24261F" stroke-width="1.5" fill="none" stroke-linecap="round"/><path d="M1539,1146 Q1542,1120 1547,1102" stroke="#24261F" stroke-width="1.5" fill="none" stroke-linecap="round"/><path d="M751,1146 Q755,1132 760,1122" stroke="#24261F" stroke-width="1.5" fill="none" stroke-linecap="round"/><path d="M459,1146 Q463,1105 470,1077" stroke="#24261F" stroke-width="1.5" fill="none" stroke-linecap="round"/><path d="M93,1146 Q92,1109 90,1085" stroke="#24261F" stroke-width="1.5" fill="none" stroke-linecap="round"/><path d="M1471,1146 Q1472,1119 1473,1101" stroke="#24261F" stroke-width="1.5" fill="none" stroke-linecap="round"/><path d="M1044,1146 Q1044,1116 1045,1097" stroke="#24261F" stroke-width="1.5" fill="none" stroke-linecap="round"/><path d="M1077,1146 Q1077,1108 1076,1083" stroke="#24261F" stroke-width="1.5" fill="none" stroke-linecap="round"/><path d="M270,1146 Q267,1105 261,1078" stroke="#24261F" stroke-width="1.5" fill="none" stroke-linecap="round"/><path d="M927,1146 Q925,1104 923,1077" stroke="#24261F" stroke-width="1.5" fill="none" stroke-linecap="round"/><path d="M966,1146 Q969,1119 973,1101" stroke="#24261F" stroke-width="1.5" fill="none" stroke-linecap="round"/><path d="M929,1146 Q930,1129 933,1118" stroke="#24261F" stroke-width="1.5" fill="none" stroke-linecap="round"/><path d="M614,1146 Q611,1108 606,1082" stroke="#24261F" stroke-width="1.5" fill="none" stroke-linecap="round"/><path d="M1173,1146 Q1171,1111 1169,1088" stroke="#24261F" stroke-width="1.5" fill="none" stroke-linecap="round"/><path d="M1072,1146 Q1073,1127 1075,1114" stroke="#24261F" stroke-width="1.5" fill="none" stroke-linecap="round"/><path d="M1105,1146 Q1105,1125 1105,1110" stroke="#24261F" stroke-width="1.5" fill="none" stroke-linecap="round"/><path d="M605,1146 Q606,1128 609,1117" stroke="#24261F" stroke-width="1.5" fill="none" stroke-linecap="round"/><path d="M1325,1146 Q1322,1117 1316,1098" stroke="#24261F" stroke-width="1.5" fill="none" stroke-linecap="round"/><path d="M1374,1146 Q1376,1123 1379,1108" stroke="#24261F" stroke-width="1.5" fill="none" stroke-linecap="round"/><path d="M443,1146 Q439,1113 432,1091" stroke="#24261F" stroke-width="1.5" fill="none" stroke-linecap="round"/><path d="M755,1146 Q756,1109 759,1084" stroke="#24261F" stroke-width="1.5" fill="none" stroke-linecap="round"/><path d="M299,1146 Q296,1114 290,1092" stroke="#24261F" stroke-width="1.5" fill="none" stroke-linecap="round"/><path d="M997,1146 Q992,1107 986,1082" stroke="#24261F" stroke-width="1.5" fill="none" stroke-linecap="round"/><path d="M123,1146 Q123,1112 123,1089" stroke="#24261F" stroke-width="1.5" fill="none" stroke-linecap="round"/><path d="M1496,1146 Q1494,1110 1491,1087" stroke="#24261F" stroke-width="1.5" fill="none" stroke-linecap="round"/><path d="M1440,1146 Q1437,1133 1433,1125" stroke="#24261F" stroke-width="1.5" fill="none" stroke-linecap="round"/><path d="M1566,1146 Q1567,1126 1570,1112" stroke="#24261F" stroke-width="1.5" fill="none" stroke-linecap="round"/><path d="M1374,1146 Q1373,1120 1372,1103" stroke="#24261F" stroke-width="1.5" fill="none" stroke-linecap="round"/><path d="M195,1146 Q196,1131 198,1121" stroke="#24261F" stroke-width="1.5" fill="none" stroke-linecap="round"/><path d="M1210,1146 Q1213,1128 1217,1117" stroke="#24261F" stroke-width="1.5" fill="none" stroke-linecap="round"/><path d="M818,1146 Q822,1115 830,1094" stroke="#24261F" stroke-width="1.5" fill="none" stroke-linecap="round"/><path d="M290,1146 Q295,1105 302,1078" stroke="#24261F" stroke-width="1.5" fill="none" stroke-linecap="round"/><path d="M966,1146 Q966,1120 966,1103" stroke="#24261F" stroke-width="1.5" fill="none" stroke-linecap="round"/><path d="M1315,1146 Q1310,1126 1303,1112" stroke="#24261F" stroke-width="1.5" fill="none" stroke-linecap="round"/><path d="M90,1146 Q87,1133 81,1125" stroke="#24261F" stroke-width="1.5" fill="none" stroke-linecap="round"/><path d="M103,1146 Q102,1127 101,1114" stroke="#24261F" stroke-width="1.5" fill="none" stroke-linecap="round"/><path d="M1167,1146 Q1167,1114 1169,1092" stroke="#24261F" stroke-width="1.5" fill="none" stroke-linecap="round"/><path d="M828,1146 Q827,1108 825,1083" stroke="#24261F" stroke-width="1.5" fill="none" stroke-linecap="round"/><path d="M186,1146 Q185,1107 184,1080" stroke="#24261F" stroke-width="1.5" fill="none" stroke-linecap="round"/><path d="M912,1146 Q909,1118 905,1099" stroke="#24261F" stroke-width="1.5" fill="none" stroke-linecap="round"/><path d="M441,1146 Q441,1105 440,1077" stroke="#24261F" stroke-width="1.5" fill="none" stroke-linecap="round"/><path d="M507,1146 Q504,1120 499,1102" stroke="#24261F" stroke-width="1.5" fill="none" stroke-linecap="round"/><path d="M466,1146 Q462,1124 455,1110" stroke="#24261F" stroke-width="1.5" fill="none" stroke-linecap="round"/>
  <rect width="1600" height="1200" fill="url(#vig)"/>
  <rect width="1600" height="1200" filter="url(#grain)" opacity="0.055" style="mix-blend-mode:overlay"/>
</svg>